<svg width="50" height="50" viewBox="0 0 50 50" fill="none" xmlns="http://www.w3.org/2000/svg">
<rect width="50" height="50" fill="white"/>
<path d="M19.188 49C19.9369 49 20.544 48.3759 20.544 47.606C20.544 46.8361 19.9369 46.212 19.188 46.212C18.4391 46.212 17.832 46.8361 17.832 47.606C17.832 48.3759 18.4391 49 19.188 49Z" fill="black"/>
<path d="M30.356 48.998C31.1049 48.998 31.712 48.3739 31.712 47.604C31.712 46.8341 31.1049 46.21 30.356 46.21C29.6071 46.21 29 46.8341 29 47.604C29 48.3739 29.6071 48.998 30.356 48.998Z" fill="black"/>
<path d="M27.809 8.404C29.797 8.404 31.413 6.741 31.413 4.696C31.412 2.652 29.797 1 27.809 1C25.822 1 24.205 2.652 24.205 4.696C24.205 6.741 25.822 8.404 27.809 8.404ZM8.266 40.798C8.096 41.126 8 41.498 8 41.901C8 43.203 9.032 44.265 10.307 44.265C11.222 44.265 12.008 43.718 12.38 42.93L20.241 29.03L16.977 25.672L8.266 40.798ZM25.299 40.174C25.1163 40.5706 24.8244 40.9069 24.4574 41.1435C24.0905 41.3802 23.6636 41.5073 23.227 41.51C21.962 41.51 20.932 40.448 20.932 39.146C20.932 38.742 21.027 38.371 21.198 38.042L24.621 31.853L17.945 25.027C15.383 22.381 17.212 19.516 17.212 19.516L20.805 12.987L11.275 12.998C10.223 12.998 9.383 12.065 9.383 10.993C9.382 9.932 10.222 9 11.274 9H40.117C41.16 9 42 9.934 42 11.005C42 12.077 41.16 13 40.117 13H29.115L23.865 22.458L29.211 27.893C31.084 29.742 29.871 31.819 29.871 31.819L25.299 40.174ZM34 44C34 44.2652 33.8946 44.5196 33.7071 44.7071C33.5196 44.8946 33.2652 45 33 45H16C15.7348 45 15.4804 44.8946 15.2929 44.7071C15.1054 44.5196 15 44.2652 15 44C15 43.7348 15.1054 43.4804 15.2929 43.2929C15.4804 43.1054 15.7348 43 16 43H33C33.2652 43 33.5196 43.1054 33.7071 43.2929C33.8946 43.4804 34 43.7348 34 44Z" fill="#864747" fill-opacity="0.83"/>
</svg>

