<svg width="50" height="50" viewBox="0 0 50 50" fill="none" xmlns="http://www.w3.org/2000/svg">
<rect width="50" height="50" fill="white"/>
<path d="M19.188 49C19.9369 49 20.544 48.3759 20.544 47.606C20.544 46.8361 19.9369 46.212 19.188 46.212C18.4391 46.212 17.832 46.8361 17.832 47.606C17.832 48.3759 18.4391 49 19.188 49Z" fill="black"/>
<path d="M30.356 48.998C31.1049 48.998 31.712 48.3739 31.712 47.604C31.712 46.8341 31.1049 46.21 30.356 46.21C29.6071 46.21 29 46.8341 29 47.604C29 48.3739 29.6071 48.998 30.356 48.998Z" fill="black"/>
<path d="M27.809 8.404C29.797 8.404 31.413 6.741 31.413 4.696C31.412 2.652 29.797 1 27.809 1C25.822 1 24.205 2.652 24.205 4.696C24.205 6.741 25.822 8.404 27.809 8.404ZM8.266 40.798C8.096 41.126 8 41.498 8 41.901C8 43.203 9.032 44.265 10.307 44.265C11.222 44.265 12.008 43.718 12.38 42.93L20.241 29.03L16.977 25.672L8.266 40.798ZM25.299 40.174C25.1163 40.5706 24.8244 40.9069 24.4574 41.1435C24.0905 41.3802 23.6636 41.5073 23.227 41.51C21.962 41.51 20.932 40.448 20.932 39.146C20.932 38.742 21.027 38.371 21.198 38.042L24.621 31.853L17.945 25.027C15.383 22.381 17.212 19.516 17.212 19.516L20.805 12.987L11.275 12.998C10.223 12.998 9.383 12.065 9.383 10.993C9.382 9.932 10.222 9 11.274 9H40.117C41.16 9 42 9.934 42 11.005C42 12.077 41.16 13 40.117 13H29.115L23.865 22.458L29.211 27.893C31.084 29.742 29.871 31.819 29.871 31.819L25.299 40.174ZM34 44C34 44.2652 33.8946 44.5196 33.7071 44.7071C33.5196 44.8946 33.2652 45 33 45H16C15.7348 45 15.4804 44.8946 15.2929 44.7071C15.1054 44.5196 15 44.2652 15 44C15 43.7348 15.1054 43.4804 15.2929 43.2929C15.4804 43.1054 15.7348 43 16 43H33C33.2652 43 33.5196 43.1054 33.7071 43.2929C33.8946 43.4804 34 43.7348 34 44Z" fill="#864747" fill-opacity="0.83"/>
<path d="M8.30469 39.7031L25.0156 10.4531C24.3906 10.4844 23.7656 10.5156 23.1406 10.5469C22.5312 10.5625 21.9062 10.5859 21.2656 10.6172L4.08594 39.9375C5.49219 39.8438 6.89844 39.7656 8.30469 39.7031ZM11.1875 39.5625C12.625 39.4844 14.6484 39.4453 17.2578 39.4453C19.8672 39.4453 22.6484 39.5 25.6016 39.6094C25.6641 36.0938 25.9453 33.0469 26.4453 30.4688C26.5078 30.1875 26.6484 29.9531 26.8672 29.7656C27.1016 29.5625 27.375 29.4609 27.6875 29.4609C28 29.4609 28.2812 29.5938 28.5312 29.8594C28.7812 30.125 28.9062 30.3594 28.9062 30.5625C28.9062 30.7656 28.8281 31.25 28.6719 32.0156C28.25 34.2344 28.0391 36.9844 28.0391 40.2656V40.8516C28.0391 41.1953 27.9141 41.4922 27.6641 41.7422C27.4297 41.9766 27.1562 42.0938 26.8438 42.0938H26.75C19.1875 41.6875 10.9141 41.8516 1.92969 42.5859H1.83594C1.49219 42.5859 1.19531 42.4609 0.945312 42.2109C0.710938 41.9609 0.59375 41.7266 0.59375 41.5078C0.59375 41.2578 0.65625 41.0078 0.78125 40.7578L18.3359 10.7109H15.4062C11.8125 10.7109 8.52344 10.6094 5.53906 10.4062C5.25781 12.7969 4.72656 15.4375 3.94531 18.3281C3.74219 18.9062 3.39844 19.1953 2.91406 19.1953C2.44531 19.1953 2.08594 19.0703 1.83594 18.8203C1.60156 18.5703 1.48438 18.2969 1.48438 18L1.55469 17.625C2.36719 14.8594 2.90625 11.9766 3.17188 8.97656C3.21875 8.66406 3.35938 8.40625 3.59375 8.20312C3.82812 7.98438 4.10156 7.875 4.41406 7.875H4.53125C8.09375 8.125 11.7344 8.25 15.4531 8.25C19.1719 8.25 23.0781 8.125 27.1719 7.875H27.2188C27.5781 7.90625 27.875 8.03906 28.1094 8.27344C28.3438 8.49219 28.4609 8.71094 28.4609 8.92969C28.4609 9.32031 28.3984 9.59375 28.2734 9.75L11.1875 39.5625Z" fill="black"/>
</svg>



